# xmcd
#
# Track frame offsets: 
#        150
#        20248
#        41850
#        61383
#        87628
#        103925
#        125703
#        160255
#        181430
#        204065
#
# Disc length: 2975 seconds
#
# Revision: 0
# Processed by: cddbd v1.4PL0 Copyright (c) Steve Scherf et al.
# Submitted via: ExactAudioCopy v0.90b4
#
DISCID=920b9d0a
DTITLE=Various Artist - Up Close Twenty featuring Sam MacLean
DYEAR=1900
DGENRE=Blues
TTITLE0=Might Sam McClean  - Give It Up To Love
TTITLE1=Might Sam McClean - I'm So Lonely
TTITLE2=Might Sam McClean - Lonesome Road
TTITLE3=Might Sam McClean - Who Made You Cry
TTITLE4=Lloyd Jones - Bust Up A Love
TTITLE5=Lloyd Jones - Can't Get You Off Of My Mind
TTITLE6=Ronnie Earl and The Broadcasters - Kansas City Monarch
TTITLE7=Ronnie Earl and The Broadcasters - Suol Serenade
TTITLE8=Doug MacLeod - Mystery Woman
TTITLE9=DougMacLeod - Ain't No Grave
EXTD=
EXTT0=
EXTT1=
EXTT2=
EXTT3=
EXTT4=
EXTT5=
EXTT6=
EXTT7=
EXTT8=
EXTT9=
PLAYORDER=
